HIERARCHY
ROOT Hips
{
	OFFSET 0.00000 0.00000 0.00000
	CHANNELS 6 Xposition Yposition Zposition Zrotation Yrotation Xrotation 
	JOINT LHipJoint
	{
		OFFSET 0 0 0
		CHANNELS 3 Zrotation Yrotation Xrotation
		JOINT LeftUpLeg
		{
			OFFSET 1.37590 -1.78394 0.89329
			CHANNELS 3 Zrotation Yrotation Xrotation
			JOINT LeftLeg
			{
				OFFSET 2.47928 -6.81178 0.00000
				CHANNELS 3 Zrotation Yrotation Xrotation
				JOINT LeftFoot
				{
					OFFSET 2.63345 -7.23535 0.00000
					CHANNELS 3 Zrotation Yrotation Xrotation
					JOINT LeftToeBase
					{
						OFFSET 0.23938 -0.65768 2.27012
						CHANNELS 3 Zrotation Yrotation Xrotation
						End Site
						{
							OFFSET 0.00000 -0.00000 1.18363
						}
					}
				}
			}
		}
	}
	JOINT RHipJoint
	{
		OFFSET 0 0 0
		CHANNELS 3 Zrotation Yrotation Xrotation
		JOINT RightUpLeg
		{
			OFFSET -1.33617 -1.78394 0.89329
			CHANNELS 3 Zrotation Yrotation Xrotation
			JOINT RightLeg
			{
				OFFSET -2.56922 -7.05888 0.00000
				CHANNELS 3 Zrotation Yrotation Xrotation
				JOINT RightFoot
				{
					OFFSET -2.56568 -7.04915 0.00000
					CHANNELS 3 Zrotation Yrotation Xrotation
					JOINT RightToeBase
					{
						OFFSET -0.27533 -0.75646 2.18105
						CHANNELS 3 Zrotation Yrotation Xrotation
						End Site
						{
							OFFSET -0.00000 -0.00000 1.15233
						}
					}
				}
			}
		}
	}
	JOINT LowerBack
	{
		OFFSET 0 0 0
		CHANNELS 3 Zrotation Yrotation Xrotation
		JOINT Spine
		{
			OFFSET 0.06190 2.15152 -0.00935
			CHANNELS 3 Zrotation Yrotation Xrotation
			JOINT Spine1
			{
				OFFSET 0.06334 2.15332 0.00872
				CHANNELS 3 Zrotation Yrotation Xrotation
				JOINT Neck
				{
					OFFSET 0 0 0
					CHANNELS 3 Zrotation Yrotation Xrotation
					JOINT Neck1
					{
						OFFSET -0.04202 1.66908 0.23524
						CHANNELS 3 Zrotation Yrotation Xrotation
						JOINT Head
						{
							OFFSET 0.07510 1.69357 -0.24440
							CHANNELS 3 Zrotation Yrotation Xrotation
							End Site
							{
								OFFSET 0.02556 1.71719 -0.11000
							}
						}
					}
				}
				JOINT LeftShoulder
				{
					OFFSET 0 0 0
					CHANNELS 3 Zrotation Yrotation Xrotation
					JOINT LeftArm
					{
						OFFSET 3.67168 1.26306 -0.41342
						CHANNELS 3 Zrotation Yrotation Xrotation
						JOINT LeftForeArm
						{
							OFFSET 4.68510 -0.00000 -0.00000
							CHANNELS 3 Zrotation Yrotation Xrotation
							JOINT LeftHand
							{
								OFFSET 3.39626 -0.00000 -0.00000
								CHANNELS 3 Zrotation Yrotation Xrotation
								JOINT LeftFingerBase
								{
									OFFSET 0 0 0
									CHANNELS 3 Zrotation Yrotation Xrotation
									JOINT LeftHandIndex1
									{
										OFFSET 0.48608 -0.00000 -0.00000
										CHANNELS 3 Zrotation Yrotation Xrotation
										End Site
										{
											OFFSET 0.39189 -0.00000 -0.00000
										}
									}
								}
								JOINT LThumb
								{
									OFFSET 0 0 0
									CHANNELS 3 Zrotation Yrotation Xrotation
									End Site
									{
										OFFSET 0.39787 -0.00000 0.39787
									}
								}
							}
						}
					}
				}
				JOINT RightShoulder
				{
					OFFSET 0 0 0
					CHANNELS 3 Zrotation Yrotation Xrotation
					JOINT RightArm
					{
						OFFSET -3.04136 1.42992 -0.76390
						CHANNELS 3 Zrotation Yrotation Xrotation
						JOINT RightForeArm
						{
							OFFSET -5.55576 -0.00000 -0.00000
							CHANNELS 3 Zrotation Yrotation Xrotation
							JOINT RightHand
							{
								OFFSET -3.32774 -0.00000 -0.00000
								CHANNELS 3 Zrotation Yrotation Xrotation
								JOINT RightFingerBase
								{
									OFFSET 0 0 0
									CHANNELS 3 Zrotation Yrotation Xrotation
									JOINT RightHandIndex1
									{
										OFFSET -0.50763 -0.00000 -0.00000
										CHANNELS 3 Zrotation Yrotation Xrotation
										End Site
										{
											OFFSET -0.40926 -0.00000 -0.00000
										}
									}
								}
								JOINT RThumb
								{
									OFFSET 0 0 0
									CHANNELS 3 Zrotation Yrotation Xrotation
									End Site
									{
										OFFSET -0.41551 -0.00000 0.41551
									}
								}
							}
						}
					}
				}
			}
		}
	}
}
MOTION
Frames: 15
Frame Time: .0083333
45.0915 17.9268 5.9962 0 0 0 0 0 0 -21 0 0 0 0 0 0 0 0 0 0 0 0 0 0 21 0 0 0 0 0 0 0 0 0 0 0 0 0 0 0 0 0 0 0 0 0 0 -16 0 0 21 0 0 11 0 0 0 -8 0 0 0 0 0 0 0 0 0 0 0 0 0 0 0 0 0 0 0 0 8 0 0 0 0 0 0 0 0 0 0 0 0 0 0 0 0 0
45.0915 17.9268 5.9962 -85.0751 -83.4478 92.1078 0.0000 0.0000 0.0000 -10.4226 -7.9976 -3.2419 0.2724 3.3572 9.2749 0.2338 1.0988 -9.6012 0.0043 -0.4253 -1.1687 0.0000 0.0000 0.0000 28.3699 5.5055 -6.8021 -0.5057 -4.5586 12.6538 -0.0419 -7.6819 -11.8092 -0.6176 -5.0293 13.9923 2.7323 0.4660 -3.9706 3.9757 0.4447 -3.7566 2.5728 0.1507 -1.6484 -7.7694 -5.1438 -18.0548 7.4009 -6.2171 11.8829 2.9607 -2.7038 7.0684 0.0000 0.0000 0.0000 -93.7200 -0.9581 13.8256 11.1147 -18.4638 -1.8121 -0.0000 -0.0000 35.4281 14.0204 17.9047 4.3899 -7.1250 0.0000 -0.0000 -13.4959 47.9284 -0.9920 0.0000 0.0000 0.0000 81.7996 1.3669 14.7317 -11.4459 18.9685 -1.9184 0.0000 0.0000 14.1340 -12.3181 -22.5739 4.7916 7.1250 -0.0000 -0.0000 17.0025 -52.2288 -3.0990
45.0859 17.9263 5.9955 -85.5275 -83.4487 92.5862 0.0000 0.0000 0.0000 -10.4214 -7.9872 -3.2383 0.2729 3.3600 9.2826 0.2362 1.1286 -9.6636 0.0048 -0.4481 -1.2313 0.0000 0.0000 0.0000 28.3809 5.5361 -6.8157 -0.5077 -4.5675 12.6789 -0.0449 -7.6542 -11.8300 -0.6089 -4.9944 13.8925 4.4265 0.3890 -3.8524 2.6414 0.3248 -3.8822 0.2460 0.0419 -1.8261 -7.5304 -4.8254 -18.0474 9.7948 -6.3287 12.3757 3.7035 -2.5436 7.3219 -0.0000 0.0000 0.0000 -91.3679 -0.6281 14.5409 11.2048 -18.6015 -1.8407 -0.0000 -0.0000 34.3941 14.0423 17.9781 4.4144 -7.1250 0.0000 -0.0000 -13.5006 48.0041 -1.0180 -0.0000 0.0000 0.0000 84.1109 1.2575 14.6006 -11.4529 18.9791 -1.9206 0.0000 0.0000 14.1703 -12.8663 -22.4650 4.9882 7.1250 -0.0000 -0.0000 16.4201 -52.2173 -2.9832
45.0792 17.9249 5.9958 -86.2945 -83.4977 93.3609 0.0000 0.0000 0.0000 -10.4930 -7.9701 -3.1932 0.2704 3.3449 9.2405 0.2348 1.2025 -9.6733 0.0044 -0.4277 -1.1751 0.0000 0.0000 0.0000 28.3257 5.5222 -6.8094 -0.5078 -4.5681 12.6806 -0.0493 -7.5636 -11.7972 -0.6207 -5.0417 14.0276 4.3576 0.3900 -4.0041 2.6416 0.3148 -3.7505 0.2844 0.0447 -1.6055 -7.5034 -4.8356 -18.2295 9.8215 -6.3402 12.3451 3.7044 -2.5407 7.3443 0.0000 -0.0000 0.0000 -91.3602 -0.8721 14.6655 11.1823 -18.5672 -1.8335 -0.0000 -0.0000 34.3817 13.9969 18.1983 4.4514 -7.1250 0.0000 -0.0000 -13.6190 48.2158 -1.0994 0.0000 -0.0000 0.0000 84.1010 1.4614 14.5879 -11.4902 19.0357 -1.9328 0.0000 0.0000 14.1773 -12.8186 -22.7021 5.0186 7.1250 -0.0000 -0.0000 16.5777 -52.4384 -3.1044
45.0830 17.9330 6.0043 -85.4086 -83.5740 92.5561 0.0000 0.0000 0.0000 -10.6314 -8.1369 -3.3127 0.2778 3.3898 9.3660 0.2435 1.1553 -9.8162 0.0076 -0.5617 -1.5435 0.0000 0.0000 0.0000 28.1799 5.3416 -7.0073 -0.5124 -4.5881 12.7373 -0.0568 -7.4362 -11.7769 -0.6168 -5.0263 13.9837 4.2837 0.2911 -4.0836 2.6666 0.1779 -3.6551 0.3475 -0.0179 -1.4661 -5.5863 -5.0152 -19.5481 6.7116 -6.5050 13.3727 2.3218 -2.7561 7.7339 -0.0000 0.0000 0.0000 -91.3252 -0.9690 15.4390 11.3173 -18.7730 -1.8768 -0.0000 -0.0000 33.5243 14.0188 18.4530 4.5187 -7.1250 0.0000 -0.0000 -13.6879 48.4711 -1.1926 -0.0000 0.0000 0.0000 84.0929 1.7593 14.1189 -11.5076 19.0622 -1.9385 0.0000 0.0000 14.9283 -12.9949 -22.3585 5.0170 7.1250 -0.0000 -0.0000 16.2461 -52.1362 -2.9174
45.0685 17.9223 5.9944 -88.0018 -83.5145 95.0907 0.0000 0.0000 0.0000 -10.5081 -7.8747 -3.1865 0.2721 3.3556 9.2704 0.2407 1.2257 -9.7974 0.0052 -0.4672 -1.2837 0.0000 0.0000 0.0000 28.3194 5.5422 -6.8266 -0.5126 -4.5890 12.7400 -0.0604 -7.4001 -11.8016 -0.6194 -5.0367 14.0132 4.2616 0.3966 -3.8755 2.6760 0.3360 -3.8101 0.3736 0.0546 -1.7388 -7.4303 -4.8259 -18.3162 9.7791 -6.3412 12.4438 3.6778 -2.5377 7.3873 0.0000 0.0000 0.0000 -91.3460 -0.8081 15.0000 11.1851 -18.5714 -1.8344 -0.0000 -0.0000 34.1716 14.0677 18.3636 4.5139 -7.1250 0.0000 -0.0000 -13.6107 48.3895 -1.1579 0.0000 0.0000 0.0000 84.0797 1.3460 14.4279 -11.5232 19.0857 -1.9435 0.0000 0.0000 14.4039 -12.8250 -22.4001 4.9582 7.1250 -0.0000 -0.0000 16.4299 -52.1475 -2.9565
45.0638 17.9213 5.9943 -88.5914 -83.4986 95.6879 0.0000 0.0000 0.0000 -10.4878 -7.9959 -3.0997 0.2733 3.3629 9.2908 0.2516 1.2547 -10.0166 0.0010 -0.2021 -0.5552 0.0000 0.0000 0.0000 28.3381 5.5565 -6.8293 -0.5150 -4.5997 12.7701 -0.0651 -7.3297 -11.8026 -0.6254 -5.0607 14.0817 4.2540 0.4002 -3.8853 2.6941 0.3386 -3.7313 0.3963 0.0592 -1.6518 -7.3629 -4.8657 -18.6578 9.7442 -6.3932 12.5425 3.6455 -2.5513 7.4790 0.0000 -0.0000 0.0000 -91.3401 -1.0465 14.9066 11.1265 -18.4818 -1.8158 -0.0000 -0.0000 34.5267 13.8709 18.2455 4.4209 -7.1250 0.0000 -0.0000 -13.7532 48.2447 -1.1206 0.0000 -0.0000 0.0000 84.0607 1.4194 14.3894 -11.5248 19.0882 -1.9441 0.0000 0.0000 14.4656 -13.0730 -21.8016 4.9291 7.1250 -0.0000 -0.0000 15.9182 -51.6088 -2.6469
45.0603 17.9205 5.9936 -89.2079 -83.4705 96.3178 0.0000 0.0000 0.0000 -10.4396 -8.0386 -3.0753 0.2742 3.3680 9.3049 0.2553 1.2758 -10.0960 0.0001 -0.0625 -0.1718 0.0000 0.0000 0.0000 28.3754 5.5993 -6.8462 -0.5173 -4.6096 12.7983 -0.0647 -7.3134 -11.7747 -0.6185 -5.0330 14.0026 4.2539 0.4022 -3.9501 2.7168 0.3339 -3.5900 0.4194 0.0625 -1.4699 -5.7401 -5.0510 -18.2293 7.0892 -6.5334 11.5487 2.4900 -2.7935 6.9359 -0.0000 -0.0000 0.0000 -91.3312 -1.3669 14.8088 11.0995 -18.4406 -1.8073 -0.0000 -0.0000 34.9420 13.4724 18.3778 4.3194 -7.1250 0.0000 -0.0000 -14.1719 48.3187 -1.1823 -0.0000 -0.0000 0.0000 84.0633 1.7127 14.3375 -11.5505 19.1271 -1.9525 0.0000 0.0000 14.4454 -13.0346 -22.0508 4.9673 7.1250 -0.0000 -0.0000 16.0671 -51.8445 -2.7672
45.0565 17.9196 5.9930 -90.1315 -83.4751 97.2570 0.0000 0.0000 0.0000 -10.4387 -7.9572 -3.1176 0.2760 3.3792 9.3364 0.2554 1.2962 -10.1099 0.0013 0.2370 0.6511 0.0000 0.0000 0.0000 28.3733 5.6615 -6.8633 -0.5219 -4.6298 12.8555 -0.0692 -7.2625 -11.7961 -0.6226 -5.0494 14.0496 4.1983 0.4085 -4.0516 2.7347 0.3366 -3.6032 0.4693 0.0650 -1.4270 -6.3717 -4.8683 -18.2137 8.1901 -6.3421 11.8758 2.9765 -2.6336 7.0893 0.0000 0.0000 0.0000 -91.3132 -1.2803 14.8550 11.0979 -18.4382 -1.8068 -0.0000 -0.0000 34.9675 13.5337 18.2010 4.2996 -7.1250 0.0000 -0.0000 -14.0520 48.1531 -1.1136 0.0000 0.0000 0.0000 84.0678 1.6147 14.3536 -11.5703 19.1570 -1.9590 0.0000 0.0000 14.3786 -13.1599 -21.8700 4.9776 7.1250 -0.0000 -0.0000 15.8649 -51.6898 -2.6697
45.0522 17.9184 5.9930 -90.9279 -83.4645 98.0585 0.0000 0.0000 0.0000 -10.4392 -7.9629 -3.0897 0.2772 3.3862 9.3558 0.2555 1.3431 -10.1345 0.0070 0.5406 1.4856 0.0000 0.0000 0.0000 28.3817 5.6799 -6.8636 -0.5234 -4.6363 12.8741 -0.0714 -7.2006 -11.7622 -0.6170 -5.0271 13.9857 4.1802 0.4079 -4.1239 2.7573 0.3291 -3.5144 0.5025 0.0653 -1.2951 -5.7409 -4.9977 -17.8976 7.1469 -6.4741 11.3285 2.5216 -2.7704 6.8077 -0.0000 -0.0000 0.0000 -91.3114 -1.4683 14.8979 11.0556 -18.3734 -1.7934 -0.0000 -0.0000 35.0287 13.6055 18.3418 4.3554 -7.1250 0.0000 -0.0000 -14.0349 48.3021 -1.1646 -0.0000 -0.0000 0.0000 84.0601 1.7730 14.4508 -11.5920 19.1900 -1.9661 0.0000 0.0000 14.0017 -13.2732 -22.1583 5.0844 7.1250 -0.0000 -0.0000 15.8847 -51.9892 -2.7917
45.0483 17.9174 5.9926 -91.8125 -83.4827 98.9479 0.0000 0.0000 0.0000 -10.4613 -7.9152 -3.0785 0.2765 3.3822 9.3446 0.2580 1.3735 -10.1968 0.0055 0.4781 1.3137 0.0000 0.0000 0.0000 28.3632 5.7453 -6.8763 -0.5286 -4.6591 12.9387 -0.0751 -7.1702 -11.7945 -0.6111 -5.0033 13.9178 4.1322 0.4346 -4.0381 2.7607 0.3697 -3.3631 0.5333 0.0916 -1.1862 -6.3082 -4.9524 -19.1236 8.1489 -6.4305 12.0972 2.9301 -2.6510 7.3173 0.0000 -0.0000 0.0000 -91.3019 -1.9112 14.9049 10.9900 -18.2729 -1.7728 -0.0000 -0.0000 35.1639 13.5215 18.3161 4.3217 -7.1250 0.0000 -0.0000 -14.1041 48.2648 -1.1573 0.0000 -0.0000 0.0000 84.0752 2.1288 14.2972 -11.6009 19.2035 -1.9690 0.0000 0.0000 14.0580 -13.1854 -22.3429 5.0894 7.1250 -0.0000 -0.0000 16.0540 -52.1535 -2.8883
45.0441 17.9168 5.9931 -92.6682 -83.4790 99.8087 0.0000 0.0000 0.0000 -10.4749 -7.8784 -3.0458 0.2760 3.3794 9.3370 0.2603 1.4137 -10.2597 0.0054 0.4753 1.3060 0.0000 0.0000 0.0000 28.3555 5.7304 -6.9070 -0.5333 -4.6795 12.9967 -0.0818 -7.0618 -11.7899 -0.6094 -4.9964 13.8984 4.1185 0.4432 -4.1453 2.7668 0.3723 -3.2793 0.5477 0.0966 -1.0400 -5.6296 -5.0536 -18.7132 7.0920 -6.5410 11.5381 2.4647 -2.7815 7.0100 0.0000 -0.0000 0.0000 -91.2842 -2.0736 14.8309 10.9392 -18.1950 -1.7569 -0.0000 -0.0000 35.3040 13.5001 18.1396 4.2746 -7.1250 0.0000 -0.0000 -14.0617 48.0879 -1.0914 0.0000 -0.0000 0.0000 84.0906 2.2395 14.2892 -11.6414 19.2646 -1.9824 0.0000 0.0000 14.1852 -12.9042 -22.9325 5.1013 7.1250 -0.0000 -0.0000 16.6040 -52.6759 -3.2077
45.0403 17.9158 5.9931 -93.5845 -83.5040 100.7310 0.0000 0.0000 0.0000 -10.5177 -7.8455 -3.0112 0.2747 3.3715 9.3148 0.2634 1.4001 -10.3088 0.0064 0.5154 1.4163 0.0000 0.0000 0.0000 28.3212 5.7684 -6.8947 -0.5348 -4.6859 13.0147 -0.0840 -7.0065 -11.7630 -0.6097 -4.9976 13.9017 4.0524 0.4394 -4.1959 2.7929 0.3635 -3.1801 0.6113 0.0971 -0.9100 -6.2717 -4.9541 -19.2960 8.1213 -6.4235 12.0348 2.9136 -2.6449 7.3229 -0.0000 -0.0000 0.0000 -91.3162 -2.2608 14.7692 10.9123 -18.1536 -1.7485 -0.0000 -0.0000 35.4111 13.5396 18.2162 4.3050 -7.1250 0.0000 -0.0000 -14.0520 48.1689 -1.1191 -0.0000 -0.0000 0.0000 84.0709 2.4249 14.2764 -11.5968 19.1973 -1.9677 0.0000 0.0000 14.1897 -13.1000 -22.4476 5.0778 7.1250 -0.0000 -0.0000 16.1853 -52.2406 -2.9481
45.0367 17.9153 5.9932 -94.7087 -83.4997 101.8640 0.0000 0.0000 0.0000 -10.5317 -7.8046 -2.9793 0.2729 3.3604 9.2839 0.2614 1.5191 -10.3346 0.0068 0.5313 1.4598 0.0000 0.0000 0.0000 28.3202 5.8244 -6.9114 -0.5402 -4.7093 13.0812 -0.0884 -6.9502 -11.7783 -0.5960 -4.9423 13.7441 4.0830 0.4491 -4.6654 2.7635 0.3368 -2.8599 0.5654 0.0965 -0.3182 -5.5831 -5.0376 -18.8981 7.1668 -6.5156 11.2194 2.4826 -2.7611 6.9368 0.0000 -0.0000 0.0000 -91.2211 -2.7465 14.7971 10.8710 -18.0902 -1.7356 -0.0000 -0.0000 35.4229 13.5289 18.2849 4.3171 -7.1250 0.0000 -0.0000 -14.0862 48.2352 -1.1454 0.0000 -0.0000 0.0000 84.1596 2.9587 13.9397 -11.4939 19.0414 -1.9340 0.0000 0.0000 14.6671 -12.9743 -22.1922 4.9736 7.1250 -0.0000 -0.0000 16.1896 -51.9715 -2.8404
45.0342 17.9146 5.9925 -95.6108 -83.4884 102.8010 0.0000 0.0000 0.0000 -10.5188 -7.7923 -2.9954 0.2739 3.3666 9.3013 0.2672 1.5000 -10.4302 0.0081 0.5823 1.6001 0.0000 0.0000 0.0000 28.3198 5.8659 -6.9446 -0.5412 -4.7136 13.0935 -0.0872 -6.8929 -11.6878 -0.5958 -4.9416 13.7421 4.0732 0.4544 -4.4951 2.7625 0.3579 -2.9553 0.5697 0.1030 -0.5111 -6.1784 -4.9177 -19.2981 8.1804 -6.3947 11.8107 2.9213 -2.6250 7.2472 -0.0000 -0.0000 0.0000 -91.1716 -2.6231 14.7969 10.8566 -18.0682 -1.7312 -0.0000 -0.0000 35.4395 13.4450 18.3242 4.2983 -7.1250 0.0000 -0.0000 -14.1785 48.2620 -1.1627 -0.0000 -0.0000 0.0000 84.2087 2.8320 14.0861 -11.5057 19.0592 -1.9378 0.0000 0.0000 14.1635 -13.2719 -22.1954 5.0919 7.1250 -0.0000 -0.0000 15.9029 -52.0250 -2.8091
